<!--?xml version="1.0" standalone="no"?-->
              <svg id="sw-js-blob-svg" viewBox="0 0 100 100" xmlns="http://www.w3.org/2000/svg" version="1.1">
                    <defs> 
                        <linearGradient id="sw-gradient" x1="0" x2="1" y1="1" y2="0">
                            <stop id="stop1" stop-color="rgba(248, 117, 55, 1)" offset="0%"></stop>
                            <stop id="stop2" stop-color="rgba(251, 168, 31, 1)" offset="100%"></stop>
                        </linearGradient>
                    </defs>
                <path fill="url(#sw-gradient)" d="M23.1,-36.5C29,-32,32.5,-24.2,35.3,-16.6C38.2,-8.9,40.4,-1.4,39.7,5.9C39.1,13.3,35.4,20.4,30.4,26.5C25.4,32.6,19,37.7,11.9,39.4C4.7,41,-3.1,39.2,-10.1,36.3C-17.2,33.4,-23.3,29.5,-28,24.2C-32.6,18.9,-35.6,12.2,-38.1,4.6C-40.6,-3.1,-42.5,-11.7,-39.5,-18C-36.6,-24.4,-28.7,-28.4,-21.3,-32.2C-13.9,-36,-7,-39.5,0.8,-40.7C8.5,-41.9,17.1,-40.9,23.1,-36.5Z" width="100%" height="100%" transform="translate(50 50)" stroke-width="0" style="transition: all 0.3s ease 0s;"></path>
              </svg>